<svg width="1192" height="1195" viewBox="0 0 1192 1195" fill="none" xmlns="http://www.w3.org/2000/svg">
<path d="M210.64 578.89C210.524 578.853 210.409 578.817 210.293 578.782C210.293 579.753 210.293 580.723 210.293 581.695C210.409 581.692 210.524 581.689 210.64 581.688C210.64 580.754 210.64 579.822 210.64 578.89ZM210.963 573.392C211.71 570.925 213.107 568.339 210.137 565.88C209.269 568.761 209.915 571.097 210.963 573.392ZM123.789 550.017C124.304 552.071 124.981 554.102 125.284 556.188C125.596 558.325 125.538 560.516 125.642 562.683C125.422 558.394 126.904 553.954 123.789 550.017ZM208.917 586.442C207.312 590.585 205.695 594.724 204.138 598.886C204.055 599.108 204.474 599.517 205.07 600.553C208.214 596.137 208.834 591.398 208.917 586.442ZM70.62 556.353C70.3109 557.246 69.7915 558.124 69.7292 559.034C69.4266 563.407 69.2371 567.787 69.0592 572.167C69.0501 572.367 69.5292 572.587 70.1149 573.075C72.1393 567.546 72.125 562.089 70.62 556.353ZM385.64 905.541C382.876 904.719 380.801 903.685 378.136 904.363C379.031 907.56 378.926 910.727 381.187 913.623C382.954 911.004 384.485 908.781 385.64 905.541ZM139.039 591.333C144.881 583.389 147.148 569.891 145.102 558.039C144.581 563.563 144.432 569.155 143.433 574.592C142.396 580.251 140.539 585.759 139.039 591.333ZM104.695 555.089C105.446 566.229 104.371 575.904 100.196 585.09C99.8653 585.817 99.5511 586.577 99.4044 587.355C99.3199 587.799 99.5875 588.31 99.8796 589.592C102.431 585.547 103.573 581.75 104.428 577.913C106.035 570.708 107.331 563.448 104.695 555.089ZM80.6433 584.584C86.8736 574.46 87.9085 560.709 82.6963 552.846C85.8036 564.163 83.6299 574.283 80.6433 584.584ZM396.625 886.976C388.387 885.115 380.998 883.44 373.599 881.814C373.393 881.769 373.071 882.253 372.537 882.725C373.084 883.257 373.53 884.07 374.151 884.237C380.728 886.015 387.33 887.697 393.934 889.372C394.278 889.46 394.802 889.37 395.059 889.15C395.464 888.804 395.714 888.276 396.625 886.976ZM636.619 719.686C632.429 720.604 631.028 721.534 627.807 726.121C622.09 734.266 617.535 742.861 618.284 754.231C620.149 747.129 621.232 740.762 624.319 735.002C627.363 729.326 631.556 724.566 636.619 719.686ZM85.005 585.837C93.2299 575.092 92.3638 560.118 89.4278 552.096C89.2915 551.722 89.0876 551.365 88.8707 551.027C88.2111 550 87.4852 549.661 86.5438 551.04C89.0058 556.394 89.1447 562.206 89.1174 568.07C89.0889 573.94 86.8243 579.318 85.005 585.837ZM286.741 788.14C284.474 788.165 283.165 789.052 282.614 790.733C281.648 793.685 282.275 796.287 284.476 798.484C286.077 800.08 288.207 799.985 289.777 798.279C292.122 795.73 291.507 790.528 288.573 788.691C287.928 788.287 287.066 788.232 286.741 788.14ZM97.7773 550.4C98.1123 551.973 98.5253 553.687 98.8369 555.419C100.099 562.439 100.302 569.473 98.111 576.329C97.0774 579.564 95.3906 582.591 94.0116 585.716C93.6142 586.619 93.0909 587.539 94.2674 588.647C94.7855 588.134 95.5036 587.708 95.8087 587.082C99.5589 579.379 101.575 571.24 101.89 562.669C102.031 558.79 101.24 555.063 100.26 551.369C100.038 550.534 99.516 549.403 97.7773 550.4ZM161.357 594.646C165.48 593.362 165.445 590.367 166.168 588.175C170.356 575.499 170.087 561.486 165.245 553.427C166.364 560.771 167.605 567.233 166.957 573.859C166.287 580.714 163.246 586.915 161.357 594.646ZM187.275 597.634C188.617 596.881 189.46 596.69 189.804 596.17C194.373 589.262 195.785 581.393 196.344 573.353C196.844 566.164 196.534 565.084 194.606 561.879C194.206 567.863 194.412 573.851 193.256 579.565C192.084 585.371 189.569 590.906 187.275 597.634ZM122.497 590.209C125.168 591.268 125.414 589.619 125.779 588.699C128.219 582.537 130.083 576.18 130.727 569.581C131.075 566.02 130.708 562.385 130.577 558.789C130.56 558.317 130.029 557.865 129.365 556.819C129.03 568.702 127.299 579.664 122.497 590.209ZM692.136 758.234C691.6 758.352 690.969 758.327 690.539 758.609C683.974 762.91 679.033 768.636 675.771 775.772C673.998 779.648 672.954 783.741 672.683 788.001C672.608 789.175 672.526 790.491 674.324 790.839C675.877 777.633 682.039 767.007 692.136 758.234ZM659.498 782.307C660.315 778.035 660.659 775.067 661.465 772.228C664.154 762.767 668.195 754.142 676.975 748.651C677.36 748.409 677.511 747.793 677.972 747.011C675.294 746.515 673.946 748.169 672.44 749.326C666.29 754.05 662.769 760.571 660.483 767.744C659.139 771.966 658.15 776.387 659.498 782.307ZM612.252 705.481C610.593 705.342 610.14 705.157 609.849 705.301C604.299 708.05 599.881 711.994 596.905 717.499C593.811 723.227 592.019 729.363 591.034 735.756C590.942 736.352 590.431 737.386 591.921 737.458C595.271 725.044 600.045 713.467 612.252 705.481ZM112.977 548.548C113.93 552.796 114.923 556.049 115.332 559.372C115.746 562.737 115.827 566.191 115.603 569.577C115.379 572.954 114.694 576.315 114.031 579.647C113.382 582.913 111.33 585.752 110.389 589.787C118.533 581.028 121.709 556.303 112.977 548.548ZM645.71 726.058C644.017 724.836 643.119 725.489 642.49 726.198C640.367 728.585 638.099 730.903 636.352 733.553C631.329 741.175 627.762 749.388 627.357 758.686C627.32 759.506 626.997 760.634 628.733 761.124C630.13 754.64 631.338 748.211 633.875 742.148C636.481 735.92 641.005 731.114 645.71 726.058ZM149.497 592.297C151.349 592.99 151.723 591.94 152.143 591.079C156.103 582.954 157.613 574.333 157.152 565.358C156.947 561.356 156.776 557.31 155.19 553.536C154.864 552.762 154.181 552.14 153.289 550.947C156.278 573.275 155.951 573.594 149.497 592.297ZM78.1229 552.883C78.0826 553.471 77.9294 554.076 78.019 554.644C79.5967 564.683 77.9917 574.198 73.3949 583.236C73.2183 583.583 72.9625 584.041 73.0612 584.344C73.23 584.864 73.5508 585.511 73.991 585.722C74.4428 585.938 75.3921 585.921 75.6388 585.615C76.3776 584.701 77.0464 583.655 77.4437 582.554C79.4227 577.055 80.6914 571.378 81.151 565.554C81.5016 561.093 80.6043 556.826 78.1229 552.883ZM480.943 690.82C480.16 690.32 479.438 689.625 478.582 689.351C473.247 687.642 467.924 685.866 462.508 684.451C460.03 683.804 457.35 683.769 454.762 683.766C453.319 683.765 452.151 684.626 452.507 686.823C461.803 688.699 471.268 689.967 480.943 690.82ZM656.734 732.756C655.701 732.515 655.058 732.141 654.714 732.326C653.489 732.983 652.187 733.652 651.234 734.629C642.578 743.502 637.779 754.018 637.953 766.573C637.966 767.526 638.533 767.946 639.603 767.626C640.642 753.933 645.762 742.122 656.734 732.756ZM684.04 751.53C682.995 749.912 681.784 749.562 680.001 750.597C671.678 755.429 665.659 764.995 664.363 775.658C673.843 759.822 670.072 764.037 684.04 751.53ZM203.363 564.351C204.438 570.375 204.417 576.255 203.786 582.137C203.138 588.194 199.805 593.289 197.79 598.754C199.13 599.872 199.949 599.364 200.42 598.373C202.823 593.306 204.934 588.143 206.3 582.665C207.653 577.235 207.162 571.933 205.911 566.616C205.692 565.686 205.499 564.621 203.363 564.351ZM654.733 777.836C660.44 756.191 659.698 757.768 672.982 744.018C671.69 743.058 670.682 743.911 669.747 744.615C663.331 749.431 658.512 755.52 655.592 763.002C654.047 766.961 653.278 771.119 653.478 775.402C653.523 776.363 653.471 777.456 654.733 777.836ZM609.258 749.639C610.507 742.928 610.147 736.018 613.595 729.785C616.884 723.841 621.334 718.826 626.427 713.492C620.999 715.024 616.031 719.752 612.554 726.745C608.966 733.959 606.382 741.425 609.258 749.639ZM144.215 592.557C152.685 581.607 154.406 561.939 147.787 550.02C148.372 555.498 148.946 559.973 149.303 564.463C149.688 569.333 148.664 574.072 147.772 578.834C146.95 583.225 144.876 587.317 144.215 592.557ZM640.433 722.761C631.602 726.819 624.539 738.235 622.698 750.575C621.796 756.616 621.796 756.616 623.673 758.455C625.713 744.776 631.074 732.869 640.433 722.761ZM128.934 590.885C129.582 590.818 129.856 590.872 129.951 590.766C130.455 590.2 131.064 589.661 131.368 588.99C135.251 580.422 136.636 571.302 136.803 562.014C136.875 558.024 136.212 553.989 134.574 550.249C134.311 549.651 133.549 549.272 132.157 548.012C133.619 555.985 134.179 562.935 133.844 569.934C133.5 577.148 130.468 583.784 128.934 590.885ZM597.192 696.658C596.361 696.245 595.64 695.653 595.403 695.806C593.892 696.783 592.385 697.811 591.067 699.028C582.207 707.207 578.771 718.124 575.945 729.326C575.865 729.648 576.086 730.131 576.314 730.421C576.534 730.697 576.948 730.818 577.649 731.223C580.781 717.991 587.062 706.584 597.192 696.658ZM662.177 736.813C661.495 734.95 660.275 734.722 659.216 735.563C656.876 737.424 654.398 739.257 652.555 741.563C648.373 746.794 645.672 752.835 643.991 759.332C643.119 762.698 643.074 766.093 643.506 769.492C643.597 770.209 644.38 770.837 644.845 771.506C644.857 764.493 646.451 758.172 649.224 752.027C652.104 745.645 656.999 741.027 662.177 736.813ZM183.346 557.611C183.125 561.2 183.747 563.742 183.755 566.288C183.763 568.698 183.553 571.122 183.253 573.516C182.927 576.112 182.512 578.71 181.902 581.252C181.34 583.597 180.409 585.851 179.744 588.175C179.048 590.604 177.691 592.867 177.443 595.315C179.592 596.386 179.988 594.815 180.475 593.894C184.912 585.515 186.943 576.543 186.622 567.085C186.542 564.693 185.978 562.305 185.465 559.952C185.337 559.357 184.554 558.905 183.346 557.611ZM614.558 751.275C615.008 748.537 615.262 746.024 615.86 743.596C616.483 741.062 617.275 738.542 618.293 736.143C619.312 733.742 620.606 731.44 621.956 729.202C623.307 726.964 624.77 724.776 626.383 722.722C627.951 720.725 629.772 718.925 631.577 716.932C629.269 716.073 629.253 716.051 628.662 716.499C624.254 719.833 620.943 724.118 617.967 728.712C613.701 735.297 612.813 742.566 613.536 750.166C613.564 750.456 614.016 750.704 614.558 751.275ZM107.671 549.128C107.894 550.756 108.027 551.883 108.208 553.001C108.56 555.179 109.095 557.338 109.281 559.527C110.005 568.081 108.66 576.354 105.877 584.455C105.339 586.024 103.743 587.569 105.178 589.802C105.794 589.264 106.531 588.883 106.872 588.279C109.983 582.78 111.922 576.881 112.482 570.58C112.967 565.129 112.644 559.712 111.059 554.445C110.512 552.627 110.203 550.561 107.671 549.128ZM566.435 724.106C569.083 718.019 571.732 712.171 574.176 706.241C576.735 700.029 581.346 695.218 585.287 689.982C584.377 689.106 583.608 689.102 583.015 689.794C580.399 692.843 577.622 695.783 575.305 699.047C572.056 703.63 569.111 708.432 566.14 713.206C564.738 715.461 564.091 718.038 564.094 720.683C564.094 722.018 564.195 723.575 566.435 724.106ZM633.399 764.728C635.446 750.61 641.278 739.05 651.59 729.75C649.458 727.969 649.112 727.847 648.024 728.735C647.092 729.496 646.229 730.347 645.363 731.183C639.059 737.269 635.522 744.853 633.695 753.272C633.017 756.394 632.792 759.621 632.507 762.814C632.453 763.42 633.083 764.089 633.399 764.728ZM572.481 728.037C574.033 723.558 575.472 719.4 576.914 715.244C578.375 711.038 580.271 707.016 582.997 703.508C585.683 700.048 588.707 696.85 591.575 693.547C591.281 693.188 591.085 692.797 590.769 692.597C590.277 692.286 589.702 692.103 588.849 691.726C578.397 701.065 573.734 713.55 569.523 726.68C570.638 727.191 571.466 727.571 572.481 728.037ZM689.12 755.138C686.372 754.763 686.356 754.74 685.515 755.26C675.572 761.413 669.318 770.197 666.846 781.626C666.553 782.977 666.48 784.454 666.684 785.815C666.864 787.008 667.554 788.162 669.499 787.036C670.142 780.771 672.149 774.707 675.654 769.166C679.133 763.667 683.89 759.364 689.12 755.138ZM158.8 552.179C159.284 555.329 159.842 558.03 160.077 560.758C160.318 563.549 160.318 566.367 160.284 569.17C160.253 571.772 160.244 574.402 159.852 576.963C159.429 579.722 158.513 582.401 157.924 585.138C157.355 587.777 155.491 590.08 155.51 592.712C157.077 593.714 157.93 593.047 158.296 592.119C159.47 589.143 160.461 586.094 161.545 583.081C164.564 574.695 164.467 566.181 162.532 557.616C162.185 556.077 161.511 554.593 160.828 553.161C160.643 552.775 159.866 552.671 158.8 552.179ZM617.006 707.788C616.322 707.743 615.471 707.414 614.979 707.699C610.778 710.141 607.085 713.2 604.207 717.156C599.516 723.601 596.914 730.947 595.091 738.607C594.868 739.54 594.952 740.61 595.162 741.557C595.261 742 595.969 742.527 596.46 742.597C596.892 742.658 597.662 742.248 597.836 741.849C598.228 740.951 598.336 739.93 598.574 738.961C600.214 732.295 602.691 725.973 606.363 720.147C609.179 715.683 612.882 712.053 617.006 707.788ZM678.73 794.104C679.198 794.164 679.665 794.222 680.131 794.282C680.813 791.802 681.406 789.293 682.2 786.849C682.945 784.554 683.749 782.253 684.803 780.089C685.946 777.744 687.325 775.499 688.756 773.312C690.079 771.293 691.675 769.453 693.027 767.451C694.423 765.384 696.98 764.19 697.804 761.633C697.158 761.3 696.743 760.905 696.495 760.991C695.567 761.315 694.61 761.679 693.81 762.236C685.621 767.936 681.169 776.183 678.481 785.468C677.68 788.239 677.747 791.294 678.73 794.104ZM668.599 741.061C666.124 738.642 665.997 738.533 664.098 739.835C653.261 747.268 648.172 757.602 648.759 770.709C648.803 771.703 649.387 772.675 650.174 774.999C650.826 759.627 658.365 749.546 668.599 741.061ZM300.622 825.734C299.805 823.651 299.033 821.419 298.033 819.293C297.749 818.687 296.863 818.169 296.157 817.992C293.988 817.449 290.895 818.736 289.929 820.549C288.228 823.738 288.091 827.031 289.7 830.292C290.67 832.255 292.365 833.133 294.566 833.125C296.557 833.117 298.086 832.252 298.943 830.538C299.641 829.142 299.995 827.576 300.622 825.734ZM702.058 768.416C701.506 768.694 700.886 768.835 700.514 769.218C693.327 776.643 688.5 785.295 687 795.628C686.903 796.294 686.664 797.257 688.172 797.645C693.579 794.434 696.542 788.895 699.526 783.504C702.001 779.035 702.775 772.864 702.058 768.416ZM634.069 694.45C630.02 692.523 626.396 691.442 622.53 691.421C617.523 691.395 612.515 691.495 607.507 691.564C606.758 691.574 605.897 691.555 605.888 693.055C609.12 695.044 612.448 697.259 615.934 699.191C619.528 701.185 622.735 704.002 627.102 704.998C629.084 702.23 630.96 699.65 632.783 697.032C633.22 696.405 633.479 695.653 634.069 694.45ZM228.678 847.64C228.728 848.006 228.778 848.371 228.828 848.736C229.784 849.02 230.727 849.362 231.698 849.581C247.02 853.052 262.063 857.514 277.04 862.23C283.367 864.223 289.833 865.784 296.248 867.497C297.124 867.732 298.069 867.711 299.09 867.82C299.485 865.062 298.759 863.457 296.363 862.847C295.389 862.599 294.407 862.379 293.43 862.142C275.632 857.816 257.836 853.485 240.037 849.166C236.908 848.406 233.776 847.649 230.62 847.02C230.037 846.905 229.328 847.418 228.678 847.64ZM193.955 865.965C200.327 865.928 202.96 864.201 204.511 859.045C206.046 853.938 204.172 850.295 199.088 848.729C194.034 847.174 189.119 847.992 184.342 849.916C183.44 850.281 182.623 850.973 181.902 851.657C178.405 854.982 178.682 859.667 182.579 862.59C185.935 865.109 189.808 866.036 193.955 865.965ZM439.625 899.204C444.278 901.296 448.289 901.713 452.12 902.706C456.023 903.719 459.943 904.661 463.865 905.599C467.785 906.54 471.718 907.426 475.642 908.354C479.567 909.281 483.488 910.218 487.407 911.166C491.523 912.162 495.629 913.192 499.748 914.175C503.67 915.11 507.606 915.985 511.528 916.92C515.45 917.855 519.361 918.837 523.279 919.79C527.196 920.741 531.115 921.697 535.039 922.626C538.962 923.555 542.897 924.436 546.818 925.368C550.741 926.301 554.655 927.269 558.573 928.222C562.49 929.175 566.404 930.145 570.327 931.079C574.248 932.01 578.184 932.887 582.104 933.822C586.222 934.805 590.327 935.838 594.442 936.834C598.361 937.781 602.282 938.718 606.206 939.642C610.13 940.566 614.065 941.448 617.985 942.387C621.904 943.325 625.811 944.314 629.725 945.278C639.151 947.601 639.151 947.6 641.412 946.324C575.803 930.344 510.602 914.69 445.439 898.887C444.27 898.604 443.06 898.468 441.86 898.354C441.515 898.321 441.138 898.611 439.625 899.204ZM663.992 984.681C663.473 979.137 661.661 973.873 657.552 969.711C653.871 965.981 649.732 965.983 645.858 969.64C641.664 973.601 641.125 975.891 642.97 980.874C644.622 985.331 647.34 988.953 651.298 991.633C654.243 993.628 657.299 993.824 660.369 992.091C663.125 990.536 663.73 987.783 663.992 984.681ZM208.402 813.781C205.077 818.33 202.615 822.419 200.149 826.482C197.693 830.529 194.525 834.201 192.963 838.938C195.865 839.401 198.508 839.572 200.994 840.288C203.674 841.059 206.357 842.082 208.763 843.473C210.929 844.726 212.721 846.623 214.669 848.229C219.436 842.206 227.224 829.577 228.915 825.004C224.917 824.459 221.212 823.17 217.091 823.5C212.934 823.834 211.292 822.443 209.937 818.519C209.497 817.244 209.104 815.953 208.402 813.781ZM412.181 860.337C411.915 859.862 411.803 859.321 411.525 859.215C407.87 857.818 371.014 850.686 367.066 850.575C366.185 852.395 365.759 854.387 366.104 856.365C367.143 862.292 368.543 868.138 370.644 873.923C379.822 876.132 388.822 878.317 397.839 880.437C398.757 880.652 399.768 880.466 400.72 880.466C404.334 874.27 407.795 868.355 411.23 862.427C411.628 861.742 411.893 860.978 412.181 860.337ZM295.894 855.783C295.628 850.142 293.415 841.149 291.32 836.582C284.098 834.601 246.561 828.018 241.726 827.935C240.48 829.781 239.053 831.724 237.814 833.779C236.523 835.922 234.504 837.722 234.009 840.819C254.658 845.93 274.985 850.849 295.894 855.783ZM297.186 764.498C307.575 765.121 311.723 763.976 321.47 758.933C328.499 755.297 332.863 749.487 336.128 742.624C336.7 741.421 336.974 739.868 336.803 738.552C335.901 731.606 329.314 725.775 322.301 725.52C314.165 725.227 306.434 726.231 298.768 729.668C289.359 733.887 283.219 740.784 278.694 749.603C278.328 750.315 278.072 751.089 277.811 751.852C277.102 753.912 277.372 755.785 278.808 757.5C281.896 761.188 285.58 763.797 290.542 764.14C292.754 764.293 294.971 764.38 297.186 764.498ZM426.204 862.34C423.611 866.279 420.898 870.038 418.561 874.018C411.511 886.019 404.29 897.902 396.516 909.457C392.924 914.797 390.015 920.592 386.605 926.063C384.846 928.885 384.812 931.632 385.622 934.707C388.088 944.062 390.406 953.457 392.816 962.827C393.058 963.767 393.53 964.647 393.904 965.573C394.483 965.294 394.966 965.226 395.118 964.965C413.554 933.245 431.702 901.365 448.988 869.001C449.245 868.52 449.237 867.898 449.347 867.37C445.269 865.572 434.913 863.294 426.204 862.34ZM198.101 645.265C198.591 645.582 199.053 646.106 199.587 646.192C236.151 652.077 272.72 657.929 309.294 663.753C309.778 663.83 310.325 663.517 311.384 663.248C309.903 661.221 308.573 659.511 307.362 657.719C306.01 655.719 304.737 653.664 303.48 651.601C299.976 645.845 295.407 641.089 290.029 637.065C282.513 631.44 273.843 628.153 265.211 624.809C261.068 623.204 256.749 622.359 252.281 622.023C244.443 621.434 236.713 620.063 229.074 618.177C226.17 617.458 223.215 616.96 220.518 616.411C216.117 620.836 200.34 641.189 198.101 645.265ZM293.167 813.103C294.902 813.271 296.094 813.377 297.285 813.503C298.998 813.685 300.32 814.566 301.304 815.925C303.626 819.127 304.766 822.7 304.663 826.683C304.568 830.366 303.082 833.281 300.139 835.484C299.838 835.71 299.668 836.11 299.251 836.688C299.425 837.835 299.529 839.232 299.856 840.575C302.248 850.355 304.602 860.146 307.149 869.887C308.047 873.325 308.891 876.868 310.971 879.738C321.61 879.023 332.998 875.17 338.459 870.377C338.203 868.394 337.976 866.198 337.631 864.022C336.247 855.266 334.806 846.518 333.423 837.761C330.061 816.466 326.733 795.165 323.339 773.875C323.162 772.766 322.511 771.732 322.062 770.614C319.603 771.197 317.452 771.698 315.306 772.218C307.372 774.137 299.363 774.452 291.287 773.341C289.889 773.149 288.497 772.868 287.093 772.784C285.963 772.716 284.82 772.885 283.602 772.953C283.795 775.69 283.543 778.134 284.817 780.513C285.432 780.846 286.092 781.35 286.836 781.583C292.113 783.227 294.336 787.329 295.572 792.263C296.362 795.416 295.89 798.252 293.574 800.668C292.622 801.66 291.712 802.693 290.746 803.746C291.547 806.842 292.297 809.744 293.167 813.103ZM348.52 739.801C352.487 735.336 393.499 673.921 402.765 658.748C403.15 658.118 403.376 657.393 403.9 656.201C401.624 656.201 399.893 656.17 398.163 656.206C384.634 656.488 371.638 654.612 360.078 646.864C359.93 646.765 359.684 646.812 358.965 646.736C357.871 648.01 356.512 649.462 355.299 651.028C349.374 658.68 343.563 666.423 337.572 674.025C326.212 688.438 314.748 702.77 303.372 717.173C302.747 717.967 301.392 718.695 302.347 720.285C304.466 719.766 306.581 719.178 308.726 718.737C317.682 716.888 326.529 715.736 335.369 719.759C341.075 722.354 345.14 726.071 346.811 732.156C347.441 734.446 347.856 736.797 348.52 739.801ZM401.321 843.7C401.755 842.482 402.045 842.093 401.991 841.759C401.076 836.021 401.281 830.115 399.01 824.565C398.114 822.378 397.893 819.858 397.676 817.462C397.095 811.046 396.687 804.616 396.2 798.191C395.714 791.768 395.398 785.326 394.687 778.929C392.841 762.319 390.823 745.73 388.863 729.134C388.674 727.535 388.461 725.936 388.174 724.352C387.871 722.683 388.127 720.865 387.005 718.737C386.051 719.922 385.382 720.601 384.889 721.391C382.543 725.149 380.222 728.922 377.936 732.717C372.324 742.028 366.999 751.527 361.05 760.619C356.943 766.899 353.608 773.495 350.502 780.271C349.365 782.754 349.013 785.09 349.703 787.826C352.845 800.318 355.735 812.872 358.862 825.366C359.782 829.041 361.18 832.595 362.432 836.424C375.439 838.858 388.27 841.259 401.321 843.7ZM211.655 604.099C213.299 604.611 214.587 605.137 215.927 605.407C226.395 607.518 236.871 609.58 247.344 611.658C260.429 614.255 273.181 617.902 285.342 623.486C289.961 625.607 294.192 628.282 298.107 631.492C303.118 635.6 307.652 640.167 311.438 645.444C314.139 649.21 316.738 653.052 319.501 656.771C323.187 661.733 327.833 665.36 334.315 667.013C336.982 663.622 339.665 660.371 342.168 656.985C344.74 653.511 348.035 650.512 349.765 646.435C341.43 641.575 339.664 639.809 334.212 632.778C331.501 629.279 328.922 625.66 326.51 621.949C323.165 616.8 319.257 612.197 313.88 609.171C308.448 606.113 302.975 603.014 297.225 600.654C280.267 593.694 263.197 586.994 246.096 580.391C238.396 577.417 230.525 574.88 222.702 572.231C221.494 571.822 220.128 571.882 218.585 571.695C217.614 582.962 215.812 593.62 211.655 604.099ZM402.911 681.161C403.22 681.361 403.517 681.715 403.839 681.737C409.505 682.133 415.068 681.915 420.547 680.008C427.778 677.49 435.09 675.186 442.431 673.013C448.123 671.329 453.784 671.254 459.674 672.933C468.807 675.536 477.751 678.566 486.481 682.278C497.239 686.853 508.172 691.034 518.439 696.697C529.383 702.731 540.328 708.763 551.296 714.754C553.019 715.696 554.582 717.132 557.005 716.921C558.515 713.08 559.731 708.998 561.684 705.305C563.646 701.592 566.065 698.033 568.792 694.841C571.484 691.69 574.811 689.081 578.15 685.963C576.828 685.261 576.014 684.696 575.113 684.371C570.946 682.873 566.708 681.563 562.582 679.962C554.313 676.754 546.141 673.298 537.857 670.129C519.025 662.928 500.021 656.257 480.52 651.019C467.76 647.591 455.076 647.269 442.233 650.162C433.592 652.108 424.923 653.926 416.139 655.83C410.433 664.514 404.246 676.345 402.911 681.161ZM662.534 909.625C659.921 909.625 658.108 909.703 656.305 909.6C654.91 909.522 653.326 909.585 652.179 908.95C648.375 906.842 644.187 906.305 640.054 905.464C580.435 893.338 520.819 881.198 461.199 869.078C459.86 868.806 458.482 868.73 456.938 868.54C452.917 875.761 448.988 882.79 445.113 889.848C444.876 890.277 445.082 890.948 445.082 891.861C510.626 907.397 576.061 922.909 641.5 938.404C642.848 938.723 644.243 938.842 645.954 939.105C651.407 929.41 656.809 919.805 662.534 909.625ZM312.45 890.238C312.808 892.039 313.082 893.786 313.504 895.496C324.271 939.123 335.054 982.747 345.834 1026.37C347.817 1034.39 349.88 1042.39 351.742 1050.44C352.455 1053.52 354.067 1055.35 357.098 1056.27C359.587 1057.02 361.929 1058.24 364.389 1059.11C365.506 1059.5 366.742 1059.65 367.934 1059.72C374.417 1060.07 380.823 1059.42 387.151 1058.01C387.883 1057.84 388.534 1057.32 389.418 1056.86C389.24 1055.55 389.166 1054.36 388.911 1053.21C376.168 995.768 363.408 938.33 350.627 880.896C350.509 880.365 350.054 879.909 349.76 879.422C331.054 889.68 331.692 889.995 312.45 890.238ZM196.891 663.153C198.443 671.808 200.348 679.778 202.068 687.784C203.803 695.859 205.55 703.932 207.277 712.01C209.004 720.087 210.699 728.171 212.434 736.246C214.17 744.322 215.942 752.389 217.693 760.461C219.446 768.532 221.166 776.612 222.95 784.677C224.726 792.711 226.109 800.841 228.358 808.996C247.093 812.846 265.578 816.727 284.086 820.309C285.632 818.443 287.027 816.97 286.511 814.696C285.842 811.75 285.165 808.804 284.382 805.887C284.186 805.155 283.732 804.278 283.127 803.904C279.132 801.435 278.093 797.284 276.907 793.227C276.266 791.031 276.193 788.84 277.803 786.93C278.95 785.568 278.995 784.034 278.629 782.373C277.638 777.869 276.706 773.351 275.698 768.591C269.554 764.312 269.153 758.198 270.987 751.473C271.041 751.278 271.116 751.089 271.169 750.896C272.599 745.759 275.183 741.234 278.569 737.161C280.76 734.528 283.167 732.071 285.289 729.387C296.29 715.472 307.237 701.514 318.172 687.548C318.842 686.691 319.235 685.618 320.042 684.116C280.217 677.131 240.933 670.346 201.642 663.596C200.319 663.369 198.962 663.34 196.891 663.153ZM667.307 965.928C668.529 963.968 669.725 962.127 670.845 960.24C684.438 937.348 698.111 914.503 711.585 891.543C737.513 847.367 764.434 803.778 789.563 759.13C799.553 741.38 809.882 723.823 819.908 706.094C824.87 697.321 829.742 688.481 834.209 679.45C839.764 668.22 846.061 657.448 852.627 646.797C860.142 634.612 867.468 622.306 874.719 609.962C880.949 599.356 886.837 588.547 893.098 577.959C902.542 561.988 912.453 546.288 921.677 530.192C938.122 501.5 954.203 472.6 970.43 443.784C972.316 440.436 974.034 437 974.8 433.204C976.565 424.455 977.078 415.597 976.463 406.713C975.77 396.684 969.998 389.861 962.032 384.311C961.69 385.031 961.367 385.383 961.394 385.706C961.663 388.921 961.95 392.135 962.308 395.341C963.226 403.558 964.227 411.766 965.112 419.987C965.797 426.368 964.399 432.094 960.958 437.738C928.308 491.302 895.79 544.948 863.419 598.68C858.955 606.091 854.789 613.678 850.065 620.944C847.104 625.496 844.614 630.354 841.7 634.94C837.808 641.068 833.802 647.13 829.681 653.105C819.129 668.405 810.167 684.661 800.769 700.659C789.327 720.135 778.193 739.808 766.174 758.923C753.716 778.74 741.993 798.982 730.075 819.107C704.385 862.494 678.98 906.05 653.466 949.541C652.453 951.267 651.522 953.04 650.511 954.868C653.628 956.318 656.728 957.353 659.359 959.096C662.147 960.941 664.491 963.459 667.307 965.928ZM641.43 886.538C641.034 882.668 640.768 879.302 640.342 875.931C638.067 857.927 635.844 839.916 633.613 821.907C631.556 805.299 629.477 788.692 627.498 772.074C627.231 769.831 626.244 768.422 624.347 767.316C619.993 764.776 615.728 762.084 611.406 759.491C593.94 749.02 576.456 738.582 559.006 728.085C554.619 725.445 549.923 723.848 544.889 722.984C520.052 718.72 495.231 714.37 470.4 710.072C463.261 708.837 456.11 707.676 448.93 706.476C448.64 707.301 448.263 707.86 448.272 708.414C448.45 718.691 448.102 729.007 449.667 739.209C450.948 747.576 452.436 755.911 453.954 764.238C456.161 776.334 458.655 788.379 460.69 800.502C462.56 811.653 465.033 822.642 468.167 833.496C469.172 836.98 470.187 840.472 470.95 844.014C471.908 848.466 472.905 852.878 475.179 857.074C529.434 866.884 583.783 876.713 638.138 886.522C638.911 886.66 639.733 886.538 641.43 886.538ZM660.238 696.729C675.997 710.666 693.075 721.699 710.522 732.204C713.058 733.731 713.645 735.968 711.766 738.151C709.599 740.669 706.794 741.691 703.614 740.853C701.497 740.296 699.379 739.416 697.526 738.257C693.085 735.48 688.656 732.644 684.484 729.487C675.155 722.43 665.996 715.15 656.738 707.998C655.849 707.311 654.761 706.881 653.584 706.232C651.057 710.151 647.819 713.211 646.398 717.689C649.656 719.826 652.647 721.866 655.713 723.784C673.344 734.816 690.133 747.043 706.728 759.552C709.048 761.3 710.252 763.388 709.932 766.254C709.553 769.661 709.178 773.073 708.626 776.455C707.032 786.217 701.871 794.117 695.023 800.886C689.599 806.248 684.697 806.478 678.219 802.359C670.73 797.597 663.318 792.716 655.854 787.916C654.718 787.186 653.483 786.609 652.113 785.863C651.318 788.04 651.873 789.789 652.284 791.503C654.585 801.106 656.576 810.802 659.345 820.271C663.199 833.453 665.767 846.913 668.835 860.265C669.447 862.926 670.073 865.606 671.996 868.462C673.553 866.257 674.852 864.515 676.05 862.705C699.339 827.563 722.66 792.442 745.875 757.251C757.426 739.74 769.179 722.347 780.141 704.471C815.672 646.525 850.883 588.379 886.212 530.309C904.978 499.464 923.701 468.592 942.554 437.801C944.446 434.709 945.326 431.759 944.911 428.132C943.763 418.114 942.89 408.065 941.885 398.03C940.458 383.781 938.996 369.535 937.574 355.287C936.212 341.638 934.899 327.985 933.52 314.34C933.325 312.412 932.88 310.51 932.536 308.514C930.335 308.998 929.815 310.713 928.924 311.95C915.822 330.108 902.537 348.14 889.743 366.514C814.24 474.945 738.854 583.459 663.432 691.948C662.404 693.428 661.429 694.945 660.238 696.729ZM641.282 684.151C641.774 683.757 642.356 683.471 642.684 683.007C733.028 555.415 823.353 427.812 913.662 300.195C913.985 299.738 914.059 299.103 914.312 298.366C912.985 297.753 911.738 297.121 910.449 296.595C905.596 294.614 900.762 292.58 895.859 290.729C885.706 286.897 875.686 282.6 864.65 281.769C862.676 281.62 860.736 280.834 858.812 280.238C856.311 279.462 853.824 278.627 851.361 277.737C839.39 273.42 827.093 270.349 814.684 267.557C795.417 263.223 776.251 258.432 757.048 253.812C751.588 252.498 746.147 251.107 740.58 249.722C739.709 250.871 738.926 251.77 738.293 252.764C736.018 256.336 733.798 259.944 731.55 263.534C723.954 275.674 716.32 287.789 708.782 299.966C706.833 303.114 705.05 303.481 701.761 302.533C685.888 297.955 670.037 293.291 654.043 289.14C653.46 288.988 652.883 288.792 652.322 288.569C650.743 287.943 650.154 286.664 650.942 285.213C652.191 282.913 653.527 280.658 654.901 278.43C662.737 265.726 670.61 253.046 678.426 240.331C679.221 239.036 680.51 237.862 680.235 235.854C679.282 235.482 678.389 235.068 677.456 234.78C669.177 232.219 660.901 229.644 652.603 227.144C636.393 222.262 620.228 217.215 603.934 212.628C587.636 208.042 571.273 203.623 554.374 201.683C550.774 201.27 547.195 200.709 543.327 201.391C447.153 324.808 350.932 448.284 254.731 571.775C254.383 572.222 254.308 572.881 254.052 573.589C255.166 574.15 256.2 574.785 257.313 575.215C269.155 579.79 280.755 584.999 292.962 588.621C301.508 591.156 309.395 595.155 317.25 599.353C326.523 604.311 333.196 611.52 338.142 620.581C338.722 621.644 339.221 622.763 339.904 623.754C342.419 627.403 344.94 631.047 347.565 634.616C349.553 637.319 352.283 638.857 355.698 639.402C357.04 637.956 358.179 636.544 359.508 635.343C361.202 633.811 363.854 633.973 364.672 635.945C366.538 640.441 370.401 641.915 374.482 643.212C379.906 644.936 385.498 645.674 391.17 645.77C396.41 645.86 401.655 645.935 406.893 645.832C410.297 645.766 413.106 644.321 414.973 641.341C417.65 637.067 420.386 632.829 422.976 628.504C424.239 626.394 426.015 625.365 428.368 625.182C429.572 625.087 430.794 624.976 431.993 625.074C437.82 625.552 443.662 625.946 449.464 626.658C457.867 627.691 466.251 628.887 474.617 630.188C477.747 630.675 481.07 630.784 483.81 632.888C484.303 636.44 480.524 638.317 480.32 641.855C482.423 642.295 484.383 642.693 486.334 643.117C488.494 643.587 490.679 643.976 492.798 644.59C496.863 645.767 500.897 647.052 504.928 648.342C512.785 650.858 520.905 652.621 528.281 656.532C529.335 657.091 530.57 657.304 531.706 657.718C536.061 659.305 540.472 660.762 544.752 662.534C557.414 667.776 570.05 673.085 582.63 678.52C585.001 679.545 587.228 679.868 589.654 679.243C593.168 678.338 596.691 677.459 600.185 676.483C607.757 674.366 615.248 674.286 622.822 676.671C628.607 678.494 634.361 680.299 639.576 683.488C640.076 683.793 640.682 683.923 641.282 684.151ZM616.454 714.302C615.913 714.544 615.252 714.661 614.847 715.048C606.75 722.769 602.99 732.613 601.075 743.349C601.04 743.545 600.995 743.776 601.063 743.948C601.346 744.663 601.513 745.521 602.024 746.019C602.512 746.493 603.373 746.582 604.079 746.845C604.235 746.382 604.352 746.193 604.357 746.001C604.651 734.685 608.418 724.736 615.993 716.267C616.376 715.838 616.559 715.231 616.835 714.706C618.461 714.179 619.74 713.265 621.247 710.544C618.768 712.112 617.124 712.517 616.454 714.302ZM603.783 702.634C603.461 703.108 603.242 703.728 602.803 704.037C592.298 711.404 587.783 722.077 586.065 734.29C585.942 735.172 585.631 736.356 587.385 736.207C590.002 724.049 593.256 712.201 604.177 704.663C604.014 703.795 603.904 703.2 603.792 702.621C604.088 702.873 604.351 703.213 604.694 703.345C604.94 703.441 605.293 703.258 605.6 703.2C605.358 703.077 605.127 702.914 604.871 702.839C604.52 702.736 604.147 702.699 603.783 702.634ZM175.767 587.239C175.956 587.17 176.261 587.154 176.317 587.026C180.208 578.186 181.772 569.053 179.644 559.49C179.514 558.909 179.017 558.411 177.939 556.637C178.077 559.098 178.129 560.078 178.188 561.057C178.638 568.52 178.686 575.936 176.294 583.172C175.868 584.463 176.006 585.942 175.886 587.337C173.745 589.465 172.741 592.044 172.257 596.199C174.89 592.857 176.174 590.366 175.767 587.239ZM92.891 577.033C94.9232 577.106 95.0348 575.342 95.2932 574.14C96.967 566.374 96.9514 558.647 94.2038 551.081C94.0817 550.747 93.4779 550.59 92.3897 549.903C94.9154 559.448 96.123 568.286 93.065 577.189C92.9624 577.574 92.8351 577.956 92.7663 578.347C92.739 578.505 92.8364 578.685 92.8767 578.853C93.0585 578.599 93.4039 578.33 93.3831 578.092C93.3519 577.727 93.0676 577.385 92.891 577.033ZM188.978 580.975C189.266 580.706 189.736 580.484 189.817 580.164C191.451 573.709 191.854 567.243 189.706 560.779C189.492 561.941 189.469 563.114 189.611 564.267C190.009 567.478 190.13 570.658 189.615 573.89C189.236 576.265 189.273 578.708 189.136 581.134C188.865 581.591 188.571 582.037 188.334 582.511C188.265 582.649 188.357 582.867 188.375 583.049C188.596 582.91 188.988 582.79 189.006 582.628C189.069 582.085 188.997 581.527 188.978 580.975ZM587.289 715.423C589.875 714.328 590.805 712.142 591.147 709.569C591.662 709.364 592.338 709.3 592.665 708.929C595.319 705.916 598.156 703.132 601.582 700.983C602.026 700.704 602.247 700.068 602.924 699.085C601.767 699.085 600.901 698.815 600.393 699.128C596.26 701.677 592.73 704.796 591.268 709.677C589.132 711.078 588.195 713.258 587.463 715.575C586.438 716.236 586.179 717.16 586.528 718.294C585.956 718.759 585.164 719.108 584.847 719.708C582.948 723.306 581.854 727.168 581.499 731.221C581.445 731.847 581.688 732.497 581.794 733.136C582.056 733.158 582.319 733.18 582.582 733.202C583.859 728.2 585.135 723.2 586.408 718.194C587.693 717.585 587.796 716.601 587.289 715.423ZM120.83 551.592C120.64 552.149 120.287 552.711 120.304 553.262C120.325 553.883 119.909 554.805 121.245 555.183C121.075 553.905 120.925 552.774 120.775 551.643C119.869 551.112 120.629 549.279 118.203 549.317C119.378 550.269 118.439 552.367 120.83 551.592ZM122.101 578.366C123.402 578.29 123.957 577.799 123.106 576.397C122.782 577.168 122.504 577.83 122.262 578.527C121.521 579.951 120.921 581.387 121.866 582.959C121.388 583.158 120.617 583.24 120.482 583.577C119.844 585.164 119.381 586.82 118.869 588.462C118.633 588.721 118.381 588.968 118.177 589.249C118.149 589.29 118.356 589.5 118.455 589.632C118.535 589.196 118.616 588.758 118.695 588.321C120.778 587.074 121.136 584.886 121.675 582.788C122.689 581.398 122.918 579.932 122.101 578.366ZM137.233 583.966C136.897 584.486 136.56 585.006 136.224 585.526C136.442 585.621 136.662 585.716 136.881 585.811C136.942 585.145 137.002 584.478 137.058 583.805C138.905 582.381 138.076 580.712 137.495 579.065C138.604 578.746 139.659 578.369 139.45 576.881C139.347 576.145 139.207 575.415 139.083 574.681C139.581 574.129 140.396 573.642 140.527 573.014C141.932 566.254 141.619 559.46 140.582 552.689C140.421 551.64 139.651 550.684 139.163 549.685C140.718 558.134 139.856 566.471 139.211 574.844C138.643 576.254 138.076 577.663 137.515 579.083C137.421 580.71 137.328 582.337 137.233 583.966ZM168.06 591.362C169.209 591.441 169.857 590.953 169.882 589.758C170.271 589.323 170.808 588.952 171.028 588.443C175.158 578.929 176.026 569.009 174.498 558.838C174.327 557.693 173.708 556.542 173.037 555.575C172.731 555.131 171.794 555.122 170.691 554.772C170.805 556.094 170.78 556.876 170.952 557.611C173.158 567.048 172.724 576.403 170.265 585.733C169.918 587.048 170.093 588.501 170.022 589.889C169.335 590.393 168.647 590.897 167.978 591.401C167.979 591.689 167.981 591.978 167.983 592.266C168.009 591.965 168.035 591.663 168.06 591.362ZM195.217 594.551C196.478 594.194 196.462 593.179 196.447 592.164C196.94 591.58 197.592 591.071 197.904 590.402C200.923 583.949 201.616 577.161 200.896 569.842C200.448 570.462 200.066 570.749 200.03 571.075C199.298 577.634 198.183 584.12 196.511 590.509C196.368 591.056 196.551 591.689 196.581 592.281C195.06 592.518 195.273 593.633 195.36 594.685C194.996 594.997 194.619 595.295 194.285 595.637C194.237 595.686 194.402 595.943 194.468 596.104C194.698 595.963 195.055 595.869 195.128 595.67C195.251 595.332 195.198 594.928 195.217 594.551ZM958.279 358.713C965 364.236 971.095 369.186 977.128 374.211C987.747 383.056 993.36 394.455 994.81 408.165C995.589 415.533 994.76 422.558 992.814 429.67C987.28 449.919 977.765 468.339 967.184 486.257C961.445 495.979 954.907 505.231 949.226 514.985C921.407 562.745 893.749 610.598 866.047 658.426C801.95 769.092 737.849 879.759 673.804 990.455C671.748 994.008 669.369 997.056 666.024 999.488C658.076 1005.27 648.415 1005.2 640.896 998.92C637.312 995.927 634.448 992.286 632.173 988.174C630.016 984.278 629.359 980.206 630.473 975.908C631.23 972.989 632.16 970.115 633.056 967.078C632.261 965.548 630.547 965.554 629.037 965.208C595.425 957.527 561.81 949.86 528.195 942.187C497.146 935.101 466.098 928.011 435.047 920.932C433.088 920.486 431.11 920.131 428.899 919.686C428.266 920.443 427.511 921.108 427.048 921.935C416.87 940.043 406.726 958.169 396.39 976.622C398.093 983.436 399.837 990.459 401.61 997.475C405.56 1013.11 409.384 1028.79 413.551 1044.37C415.406 1051.31 414.079 1053.29 408.589 1056.96C404.705 1059.55 400.351 1061.19 395.904 1062.57C387.565 1065.16 379.028 1066.6 370.298 1066.57C364.823 1066.55 359.426 1065.89 354.593 1062.89C353.586 1062.26 352.402 1061.73 351.245 1061.58C348.369 1061.22 347.17 1059.51 346.535 1056.88C344.264 1047.47 341.854 1038.1 339.53 1028.7C328.151 982.706 316.785 936.706 305.401 890.709C305.016 889.158 304.485 887.641 303.914 885.749C299.49 884.598 295.041 883.382 290.563 882.288C268.431 876.88 246.291 871.499 224.151 866.124C222.406 865.701 220.631 865.404 218.602 864.992C217.404 866.668 216.196 868.247 215.107 869.903C211.89 874.789 207.579 877.312 201.549 877.624C196.055 877.908 190.685 878.08 185.373 876.476C181.432 875.285 177.917 873.416 175.206 870.232C172.503 867.058 170.821 863.431 170.785 859.227C170.744 854.34 171.522 849.734 174.342 845.436C183.864 830.933 193.101 816.243 202.579 801.711C204.465 798.818 205.033 796.178 204.251 792.692C194.645 749.792 185.216 706.853 175.712 663.931C175.151 661.398 174.721 658.838 173.079 656.601C172.171 655.366 172.005 653.604 171.415 652.115C170.04 648.64 170.797 645.868 173.853 643.625C174.968 642.807 175.912 641.697 176.769 640.592C183.938 631.342 191.074 622.066 198.205 612.786C198.686 612.162 199.053 611.449 199.397 610.898C198.583 607.305 196.288 606.096 193.005 605.298C185.903 603.573 178.657 603.133 171.475 602.136C167.681 601.609 163.881 601.071 160.066 600.741C150.223 599.891 140.373 599.125 130.522 598.377C118.856 597.492 107.175 596.789 95.5218 595.759C89.1006 595.191 82.7222 594.13 76.3296 593.255C75.3362 593.119 74.3649 592.803 73.3898 592.548C66.779 590.817 65.7103 589.313 65.7934 582.413C65.8531 577.373 65.6129 572.328 65.757 567.293C65.9362 561.025 67.0101 554.912 68.8215 548.857C69.7474 545.763 71.4225 544.487 74.2481 544.188C78.8617 543.698 83.4806 543.202 88.1111 542.936C96.9735 542.425 105.842 541.991 114.714 541.669C136.258 540.886 157.38 543.444 178.053 549.681C184.033 551.486 190.13 552.904 196.188 554.438C197.321 554.727 198.526 554.728 200.292 554.931C199.709 553.772 199.511 553.026 199.048 552.519C196.156 549.364 192.695 547.008 188.926 544.963C179.241 539.707 168.736 536.859 158.166 534.237C140.947 529.967 123.661 525.967 106.45 521.666C99.4147 519.908 92.4728 517.757 85.5491 515.589C83.4728 514.939 81.5354 513.739 79.6642 512.582C78.415 511.808 77.7761 510.499 78.1047 508.923C78.4267 507.376 79.6707 506.161 81.6016 506.189C87.4411 506.274 93.3403 506.088 99.1031 506.857C117.35 509.291 135.038 514.206 152.492 519.932C163.403 523.512 174.336 527.014 184.86 531.744C198.909 538.058 210.971 546.905 221.216 558.329C222.294 559.53 223.411 560.697 224.517 561.871C226.947 564.45 229.824 566.123 233.857 566.32C235.101 564.775 236.508 563.089 237.846 561.352C297.097 484.483 356.343 407.611 415.587 330.738C449.582 286.627 483.54 242.489 517.6 198.429C522.902 191.57 528.7 185.097 534.176 178.371C535.868 176.292 537.864 175.588 540.485 175.563C544.376 175.524 548.101 176.264 551.822 177.202C582.523 184.933 613.222 192.674 643.924 200.401C741.503 224.959 839.085 249.505 936.654 274.103C939.757 274.885 942.721 276.209 945.762 277.243C947.438 277.813 948.174 279.113 948.984 280.59C951.295 284.809 951.738 289.362 951.968 294.018C953.019 315.189 955.26 336.249 957.992 357.26C958.07 357.856 958.224 358.442 958.279 358.713Z" />
<path d="M311.194 742.997C310.384 742.448 309.501 741.346 308.621 741.347C305.694 741.349 303.114 744.082 302.801 747.162C302.693 748.224 303.059 749.205 304.212 749.476C306.682 750.052 309.249 748.295 310.615 745.153C310.849 744.614 310.928 744.009 311.194 742.997ZM304.69 754.359C301.045 754.327 298.287 751.651 298.095 747.962C297.801 742.318 303.279 736.56 308.962 736.536C312.36 736.522 315.047 738.916 315.474 742.341C316.198 748.134 310.563 754.413 304.69 754.359Z" />
<path d="M1147.38 337.239L1150.67 346.861L1126.84 354.98L1154.83 359.107L1158.12 368.728L1133.46 364.344L1101.66 388.169L1098.23 378.111L1120.64 361.389L1112.15 359.99L1094.14 366.128L1090.86 356.506L1147.38 337.239Z" />
<path d="M1117.59 392.161L1161.53 380.148L1164.21 389.952L1119.62 402.144C1115.5 403.27 1114.53 405.546 1115.38 408.665C1116.23 411.784 1118.23 413.251 1122.35 412.127L1166.94 399.934L1169.52 409.381L1125.58 421.393C1116.37 423.912 1109.74 420.362 1107.1 410.736C1104.48 401.112 1108.37 394.68 1117.59 392.161Z" />
<path d="M1150.72 442.392C1151.48 446.102 1153.46 448.048 1158.15 447.073L1162.65 446.133C1166.82 445.263 1168.34 443.342 1167.6 439.814L1166.66 435.291L1149.95 438.774L1150.72 442.392ZM1172.94 423.601L1176.01 438.344C1178.16 448.656 1174.66 454.011 1165.64 455.891L1162.05 456.64C1156.04 457.893 1151.77 456.614 1149.17 452.531L1149 452.566C1148.63 457.836 1144.61 460.37 1138.02 461.745L1127.75 463.886C1124.92 464.48 1122.84 465.004 1120.88 466.452L1118.76 456.321C1120.15 455.465 1120.99 454.912 1125.76 453.92L1136.45 451.692C1141.87 450.559 1143.26 448.475 1142.33 443.953L1141.6 440.515L1116.55 445.739L1114.48 435.789L1172.94 423.601Z" />
<path d="M1181.36 466.779L1182.97 476.818L1124.01 486.245L1122.4 476.208L1181.36 466.779Z" />
<path d="M1185.08 490.85L1188.25 518.392L1179.77 519.366L1177.77 501.923L1162.08 503.724L1163.68 517.585L1155.2 518.559L1153.61 504.696L1135.38 506.789L1137.38 524.232L1128.92 525.206L1125.75 497.665L1185.08 490.85Z" />
<path d="M1164.57 546.69C1164.78 550.473 1166.44 552.695 1171.21 552.43L1175.8 552.173C1180.06 551.936 1181.86 550.263 1181.65 546.664L1181.4 542.052L1164.36 543L1164.57 546.69ZM1189.35 531.429L1190.18 546.467C1190.78 556.985 1186.5 561.757 1177.31 562.269L1173.65 562.474C1167.52 562.815 1163.48 560.91 1161.52 556.485L1161.35 556.494C1160.2 561.649 1155.86 563.556 1149.12 563.931L1138.65 564.514C1135.76 564.676 1133.63 564.886 1131.47 566.024L1130.9 555.692C1132.4 555.051 1133.32 554.631 1138.17 554.361L1149.07 553.754C1154.61 553.445 1156.3 551.594 1156.04 546.98L1155.85 543.474L1130.29 544.896L1129.73 534.748L1189.35 531.429Z" />
<path d="M1191.39 576.063L1191.32 586.226L1166.16 586.063L1191.23 599.164L1191.17 609.328L1169.33 597.079L1131.46 609.122L1131.53 598.496L1158.2 590.077L1150.63 585.961L1131.62 585.837L1131.67 575.672L1191.39 576.063Z" />
<path d="M1143.33 636.973L1175.83 639.11C1180.09 639.391 1181.84 637.467 1182.05 634.241C1182.26 631.013 1180.78 628.878 1176.52 628.597L1144.02 626.46C1139.76 626.179 1138.01 628.103 1137.8 631.329C1137.59 634.558 1139.07 636.692 1143.33 636.973ZM1145.28 616.355L1176.6 618.416C1186.13 619.041 1191.22 624.841 1190.56 634.8C1189.91 644.759 1184.1 649.841 1174.57 649.214L1143.25 647.156C1133.72 646.529 1128.63 640.729 1129.29 630.771C1129.94 620.811 1135.75 615.729 1145.28 616.355Z" />
<path d="M1187.28 664.119L1186.05 674.207L1135.25 667.958L1133.21 684.557L1124.75 683.516L1128.03 656.827L1187.28 664.119Z" />
<path d="M1182.18 702.551L1180.41 712.561L1130.01 703.664L1127.1 720.135L1118.7 718.654L1123.37 692.17L1182.18 702.551Z" />
<path d="M1175.06 740.686L1168.79 767.689L1160.5 765.76L1164.46 748.659L1149.09 745.09L1145.94 758.682L1137.63 756.754L1140.78 743.162L1122.92 739.016L1118.96 756.118L1110.64 754.189L1116.9 727.186L1175.06 740.686Z" />
<path d="M1165.48 780.382L1162.61 790.132L1138.47 783.021L1158.95 802.541L1156.08 812.292L1138.47 794.485L1098.76 795.594L1101.76 785.402L1129.72 784.678L1123.58 778.634L1105.33 773.258L1108.22 763.507L1165.48 780.382Z" />
<path d="M1141.42 828.506L1145.02 818.506L1153.04 821.394L1142.41 850.959L1134.38 848.072L1137.98 838.072L1089.82 820.749L1093.26 811.184L1141.42 828.506Z" />
<path d="M1138.06 861.582L1134.2 870.985L1078.98 848.311L1082.83 838.907L1138.06 861.582Z" />
<path d="M1129.81 881.709L1125.49 891.009L1080.67 877.522L1080.6 877.69L1119.8 903.243L1115.87 911.704L1065.84 877.661L1071.53 865.429L1129.81 881.709Z" />
<path d="M0 597.197C0.000152475 927.016 267.372 1194.39 597.191 1194.39C790.469 1194.39 962.303 1102.56 1071.44 960.19C1074.53 956.156 1073.76 950.38 1069.73 947.288C1065.7 944.197 1059.92 944.96 1056.83 948.994C951.03 1087.02 784.502 1175.98 597.191 1175.98C277.536 1175.98 18.4052 916.852 18.405 597.197C18.405 277.542 277.536 18.4041 597.191 18.4041C796.968 18.4042 973.109 119.621 1077.14 273.598C1079.98 277.809 1085.7 278.917 1089.91 276.072C1094.12 273.227 1095.23 267.506 1092.39 263.295C985.082 104.469 803.338 9.67488e-05 597.191 0C267.371 0 0 267.377 0 597.197Z" />
<path d="M613.431 435.647L643.902 397.557L656.599 405.175L637.3 429.299L660.789 443.391L676.126 424.22L688.822 431.837L673.485 451.009L700.782 467.388L720.081 443.264L732.777 450.883L702.306 488.971L613.431 435.647ZM668.891 514.971C672.446 510.526 672.294 506.489 665.946 502.681L619.731 474.952C613.383 471.142 608.964 472.438 605.41 476.882L599.721 483.991L663.203 522.081L668.891 514.971ZM575.851 490.339L592.915 469.01C604.089 455.043 617.318 452.834 631.539 461.367L676.483 488.333C690.703 496.866 692.964 508.368 681.79 522.335L664.726 543.665L575.851 490.339ZM595.001 622.658C598.759 617.96 598.631 614.125 592.03 610.165L584.285 605.517C576.032 600.566 571.36 601.709 566.281 608.056L561.305 614.277L588.602 630.657L595.001 622.658ZM541.548 318.324L552.721 304.357L628.9 350.064L647.284 327.084L659.98 334.702L630.423 371.648L541.548 318.324ZM606.037 585.68L538.237 545.001L549.411 531.034L618.225 572.323C624.573 576.132 628.991 574.837 632.546 570.393C636.102 565.95 635.95 561.912 629.601 558.103L560.786 516.815L571.553 503.356L639.352 544.036C653.572 552.567 656.009 564.553 645.039 578.265C634.069 591.978 620.256 594.211 606.037 585.68ZM552.975 601.2C557.14 595.995 557.394 591.449 550.283 587.183L545.332 584.212C538.984 580.404 534.465 580.886 530.503 585.838L525.119 592.567L548.608 606.66L552.975 601.2ZM507.95 367.223L538.422 329.134L551.118 336.751L531.82 360.875L555.307 374.967L570.646 355.797L583.341 363.414L568.004 382.585L595.302 398.964L614.601 374.841L627.296 382.458L596.825 420.548L507.95 367.223ZM501.251 598.916L518.111 577.839C529.69 563.365 541.396 561.182 555.109 569.408L558.664 571.541C567.804 577.026 571.285 583.248 568.846 590.992L569.1 591.145C577.632 585.177 586.571 586.219 595.966 591.855L603.584 596.426C617.295 604.654 618.87 616.309 607.698 630.275L590.126 652.239L501.251 598.916ZM469.631 422.992L480.805 409.026L518.259 431.5L495.025 391.252L506.197 377.285L525.521 413.495L595.275 430.355L583.594 444.957L534.536 432.997L541.367 445.364L569.68 462.351L558.506 476.317L469.631 422.992ZM494.463 493.868L429.914 480.131L441.798 465.275L482.045 475.331L482.249 475.077L457.237 445.977L468.104 432.392L505.635 479.902L543.47 502.603L532.298 516.568L494.463 493.868ZM465.309 569.535L417.57 540.892C403.859 532.665 401.421 520.68 412.188 507.222C422.954 493.762 436.768 491.529 450.48 499.756L459.875 505.393L449.312 518.597L439.029 512.426C433.188 508.923 428.54 510.268 425.189 514.458C421.837 518.647 422.014 522.888 427.855 526.393L477.499 556.179C483.338 559.682 487.858 558.26 491.21 554.071C494.561 549.881 494.511 545.716 488.671 542.212L475.086 534.061L485.649 520.857L498.218 528.399C511.93 536.625 514.369 548.611 503.602 562.07C492.835 575.528 479.022 577.763 465.309 569.535Z" />
</svg>
