<svg width="2120" height="495" viewBox="0 0 2120 495" fill="none" xmlns="http://www.w3.org/2000/svg">
<path d="M0 297.2V93.3C0 34.7 32.9 0 95.2 0C157.5 0 190.4 34.7 190.4 93.3V133.4H129.3V89.5C129.3 64.5 116.4 54.2 97 54.2C77.6 54.2 64.7 64.5 64.7 89.5V301.6C64.7 326.6 77.6 336.3 97 336.3C116.4 336.3 129.3 326.5 129.3 301.6V243.6H190.4V297.3C190.4 355.9 157.5 390.6 95.2 390.6C32.9 390.6 0 355.8 0 297.2Z" />
<path d="M297.9 223.5L219.7 5.5H288.4L332.5 144.9H333.7L377.8 5.39999H440.7L362.5 223.4V385H297.9V223.5Z" />
<path d="M484.7 5.39999H549.4V165.4L631.7 5.39999H696.3L619.3 144.8L697.5 385.1H629.9L575.3 215.9L549.4 264.2V385.2H484.8V5.39999H484.7Z" />
<path d="M742.7 5.39999H919V59.6H807.4V159.9H896.1V214.1H807.4V330.7H919V384.9H742.7V5.39999Z" />
<path d="M970.7 5.39999H1035.3V330.8H1141.7V385H970.7V5.39999Z" />
<path d="M1187.5 5.39999H1285C1352 5.39999 1380.8 34.1 1380.8 92.7V107.9C1380.8 147 1367.9 171.4 1339.1 182.2V183.3C1373.8 194.1 1387.3 222.4 1387.3 262.5V295C1387.3 353.6 1353.8 385 1289.2 385H1187.5V5.39999ZM1277.4 160C1301.5 160 1316.2 150.2 1316.2 119.9V98.7C1316.2 71.6 1306.2 59.6 1283.3 59.6H1252.2V159.9H1277.4V160ZM1289.2 330.9C1310.9 330.9 1322.7 321.7 1322.7 293.5V260.4C1322.7 225.1 1310.4 214.3 1281 214.3H1252.2V330.9H1289.2Z" />
<path d="M1437.2 295.1V5.39999H1501.8V299.4C1501.8 326.5 1514.1 336.3 1534.7 336.3C1555.3 336.3 1567.6 326.5 1567.6 299.4V5.39999H1629.9V295C1629.9 355.7 1597 390.5 1533.5 390.5C1470 390.5 1437.2 355.8 1437.2 295.1Z" />
<path d="M1690.5 5.39999H1789.2C1853.8 5.39999 1885.6 38.5 1885.6 99.2V291.2C1885.6 351.9 1853.9 385 1789.2 385H1690.5V5.39999ZM1788 330.9C1808.6 330.9 1820.9 321.1 1820.9 294V96.5C1820.9 69.4 1808.6 59.6 1788 59.6H1755.1V330.8H1788V330.9Z" />
<path d="M1943.7 5.39999H2120V59.6H2008.4V159.9H2097.1V214.1H2008.4V330.7H2120V384.9H1943.7V5.39999Z" />
<path d="M1297 470.6V477.8H1217.4V470.6H1297Z" />
<path d="M1334.1 441.9H1346.9V464.8H1347.2C1348.5 462.8 1349.8 461 1351.1 459.1L1364.1 441.9H1379.9L1361 464L1380.9 493.8H1365.8L1351.8 471.4L1346.9 476.9V493.8H1334.1V441.9Z" />
<path d="M1405 471.8C1405 480.7 1408.7 485.3 1415.3 485.3C1422.1 485.3 1425.8 481 1425.8 471.8V441.9H1438.7V471C1438.7 487 1429.8 494.6 1414.9 494.6C1400.5 494.6 1392 487.4 1392 470.8V441.8H1405V471.8Z" />
<path d="M1455.8 442.6C1460 442 1466.1 441.5 1473 441.5C1481.5 441.5 1487.4 442.7 1491.5 445.6C1494.9 448.1 1496.8 451.7 1496.8 456.5C1496.8 463.1 1491.6 467.7 1486.7 469.3V469.5C1490.7 471 1492.9 474.4 1494.3 479.2C1496.1 485.1 1497.9 491.8 1499 493.8H1485.8C1484.9 492.3 1483.5 488.1 1481.8 481.7C1480.3 475.2 1477.8 473.5 1472.6 473.4H1468.7V493.8H1455.9V442.6H1455.8ZM1468.6 464.9H1473.7C1480.1 464.9 1483.9 462 1483.9 457.4C1483.9 452.6 1480.3 450.2 1474.4 450.2C1471.3 450.2 1469.5 450.4 1468.6 450.6V464.9Z" />
<path d="M1524.9 441.9V493.8H1511.9V441.9H1524.9Z" />
<path d="M1576 471.9H1555V484.2H1578.5V493.8H1542.1V441.9H1577.3V451.5H1555V462.3H1576V471.9Z" />
<path d="M1593.2 442.6C1597.4 442 1603.5 441.5 1610.4 441.5C1618.9 441.5 1624.8 442.7 1628.9 445.6C1632.3 448.1 1634.2 451.7 1634.2 456.5C1634.2 463.1 1629 467.7 1624.1 469.3V469.5C1628.1 471 1630.3 474.4 1631.7 479.2C1633.5 485.1 1635.3 491.8 1636.4 493.8H1623.2C1622.3 492.3 1620.9 488.1 1619.2 481.7C1617.7 475.2 1615.2 473.5 1610 473.4H1606.1V493.8H1593.3V442.6H1593.2ZM1605.9 464.9H1611C1617.4 464.9 1621.2 462 1621.2 457.4C1621.2 452.6 1617.6 450.2 1611.7 450.2C1608.6 450.2 1606.8 450.4 1605.9 450.6V464.9Z" />
<path d="M1649.3 441.9H1662.1V464.8H1662.4C1663.7 462.8 1665 461 1666.3 459.1L1679.3 441.9H1695.1L1676.2 464L1696.1 493.8H1681L1667 471.4L1662.1 476.9V493.8H1649.3V441.9Z" />
<path d="M1756.7 467.3C1756.7 484.3 1745.3 494.6 1728.7 494.6C1711.8 494.6 1701.9 483 1701.9 468.2C1701.9 452.6 1712.8 441 1729.7 441C1747.1 441.1 1756.7 453 1756.7 467.3ZM1715.5 468C1715.5 478.2 1720.8 485.3 1729.4 485.3C1738.1 485.3 1743.1 477.8 1743.1 467.7C1743.1 458.4 1738.2 450.4 1729.3 450.4C1720.5 450.4 1715.5 457.9 1715.5 468Z" />
<path d="M1771.1 441.9H1784.1V483.9H1806.8V493.8H1771.1V441.9Z" />
<path d="M1820.3 441.9H1833.3V483.9H1856V493.8H1820.3V441.9Z" />
<path d="M1903.5 471.9H1882.5V484.2H1906V493.8H1869.6V441.9H1904.8V451.5H1882.5V462.3H1903.5V471.9Z" />
<path d="M1920.7 441.9H1933.5V464.8H1933.8C1935.1 462.8 1936.4 461 1937.7 459.1L1950.7 441.9H1966.5L1947.6 464L1967.5 493.8H1952.4L1938.4 471.4L1933.5 476.9V493.8H1920.7V441.9Z" />
<path d="M1990.1 451.8H1974.8V441.9H2018.7V451.8H2003.1V493.8H1990.1V451.8Z" />
<path d="M2044.4 441.9V493.8H2031.4V441.9H2044.4Z" />
<path d="M2075 493.8L2056.7 441.9H2070.8L2077.7 463.8C2079.6 470 2081.4 475.9 2082.8 482.4H2083.1C2084.5 476.2 2086.3 470 2088.3 464.1L2095.6 441.9H2109.3L2090.1 493.8H2075Z" />
</svg>
