<svg xmlns="http://www.w3.org/2000/svg" width="78" height="78" viewBox="0 0 78 78" fill="none"><metadata><rdf:RDF xmlns:rdf="http://www.w3.org/1999/02/22-rdf-syntax-ns#" xmlns:dc="http://purl.org/dc/elements/1.1/"><rdf:Description><dc:creator>RealFaviconGenerator</dc:creator><dc:source>https://realfavicongenerator.net</dc:source></rdf:Description></rdf:RDF></metadata><g clip-path="url(#clip0_8_2)">
<rect width="78" height="78" fill="#1D2133"></rect>
<path d="M49.2799 29.2229L56.0437 20.7891L58.8621 22.4759L54.5782 27.8174L59.7922 30.9376L63.1967 26.6928L66.0149 28.3793L62.6104 32.6244L68.6697 36.251L72.9536 30.9095L75.7718 32.5965L69.008 41.0298L49.2799 29.2229ZM61.5907 46.7867C62.3798 45.8025 62.346 44.9087 60.9369 44.0655L50.6784 37.9258C49.2692 37.0822 48.2883 37.3691 47.4994 38.3531L46.2366 39.9272L60.3281 48.361L61.5907 46.7867ZM40.9381 41.3327L44.7258 36.6101C47.2062 33.5176 50.1427 33.0284 53.2994 34.9178L63.2759 40.8886C66.4324 42.7779 66.9343 45.3247 64.4539 48.4173L60.6661 53.1401L40.9381 41.3327ZM45.1889 70.6306C46.0231 69.5904 45.9947 68.7412 44.5294 67.8644L42.8102 66.8353C40.9782 65.739 39.9412 65.9921 38.8137 67.3975L37.7092 68.7749L43.7685 72.4017L45.1889 70.6306ZM33.3236 3.24545L35.8038 0.152901L52.7136 10.2733L56.7944 5.18508L59.6126 6.87184L53.0517 15.0524L33.3236 3.24545ZM47.6386 62.443L32.5887 53.4359L35.069 50.3434L50.344 59.4855C51.7531 60.3289 52.7338 60.0422 53.523 59.0582C54.3123 58.0744 54.2786 57.1803 52.8693 56.3369L37.594 47.195L39.984 44.2149L55.0337 53.2223C58.1902 55.1112 58.7312 57.7651 56.2961 60.8012C53.861 63.8375 50.7949 64.3319 47.6386 62.443ZM35.8601 65.8794C36.7847 64.7269 36.8411 63.7204 35.2626 62.7758L34.1636 62.1179C32.7545 61.2748 31.7514 61.3815 30.8719 62.478L29.6768 63.9679L34.8908 67.0884L35.8601 65.8794ZM25.8657 14.0726L32.6297 5.63899L35.4479 7.32553L31.1642 12.667L36.3778 15.7873L39.7827 11.5427L42.6007 13.2292L39.1962 17.474L45.2557 21.1006L49.5396 15.7594L52.3576 17.4459L45.5938 25.8797L25.8657 14.0726ZM24.3787 65.3737L28.1212 60.7069C30.6914 57.502 33.2899 57.0187 36.3338 58.8401L37.123 59.3124C39.1518 60.5268 39.9245 61.9045 39.3831 63.6192L39.4395 63.6531C41.3334 62.3316 43.3176 62.5623 45.4031 63.8103L47.0941 64.8224C50.1376 66.6442 50.4872 69.2248 48.0073 72.3172L44.1068 77.1804L24.3787 65.3737ZM17.3598 26.4209L19.8401 23.3285L28.154 28.3047L22.9966 19.3931L25.4766 16.3005L29.766 24.3181L45.2497 28.0512L42.6568 31.2843L31.7671 28.6362L33.2834 31.3745L39.5682 35.1357L37.0879 38.228L17.3598 26.4209ZM22.8719 42.1141L8.54359 39.0725L11.1815 35.7831L20.1154 38.0097L20.1607 37.9535L14.6086 31.5102L17.0208 28.5022L25.3518 39.0218L33.7503 44.0482L31.2703 47.1403L22.8719 42.1141ZM16.4004 58.8682L5.80352 52.5261C2.76001 50.7045 2.21883 48.0508 4.60884 45.0709C6.99863 42.0907 10.065 41.5962 13.1087 43.4178L15.1942 44.666L12.8495 47.5896L10.5669 46.2232C9.27033 45.4476 8.23859 45.7454 7.49475 46.6731C6.75069 47.6007 6.78998 48.5397 8.08654 49.3158L19.1063 55.9109C20.4024 56.6866 21.4057 56.3717 22.1498 55.4442C22.8936 54.5164 22.8825 53.5942 21.5862 52.8184L18.5707 51.0136L20.9154 48.09L23.7054 49.7599C26.7491 51.5813 27.2905 54.2352 24.9005 57.2153C22.5105 60.1952 19.4444 60.69 16.4004 58.8682Z" fill="#EA4D65"></path>
</g><defs>
<clipPath id="clip0_8_2">
<rect width="78" height="78" fill="white"></rect>
</clipPath>
</defs></svg>